<?xml version="1.0" encoding="UTF-8"?>
<svg version="1.1" xmlns="http://www.w3.org/2000/svg" width="117" height="85">
<path d="M0 0 C7.92 0 15.84 0 24 0 C30.19234906 16.52762205 36.25567649 32.98449373 41 50 C41.34998047 48.48212891 41.34998047 48.48212891 41.70703125 46.93359375 C45.59533883 30.87882542 51.34599902 15.49651756 57 0 C64.92 0 72.84 0 81 0 C81 24.09 81 48.18 81 73 C75.72 73 70.44 73 65 73 C65 55.84 65 38.68 65 21 C63.02 27.6 61.04 34.2 59 41 C57.07381293 46.76347358 55.12820231 52.5138031 53.125 58.25 C52.6220162 59.70038924 52.11941159 61.15091003 51.6171875 62.6015625 C50.41645022 66.06948135 49.20815244 69.53462325 48 73 C43.38 73 38.76 73 34 73 C29.62502761 62.96997071 26.14842827 52.767145 22.75 42.375 C21.93933651 39.90786794 21.12734248 37.44118427 20.31378174 34.9750061 C19.81213564 33.45315996 19.31234407 31.93070093 18.81463623 30.40756226 C17.58867012 26.63153852 17.58867012 26.63153852 16 23 C16 39.5 16 56 16 73 C10.72 73 5.44 73 0 73 C0 48.91 0 24.82 0 0 Z " fill="#F4F5F5" transform="translate(5,6)"/>
<path d="M0 0 C3.69824535 2.05458075 4.7810498 3.3431494 6.125 7.375 C6 11 6 11 4 14.4375 C1 17 1 17 -2.5 17.625 C-6.59572746 16.8936201 -8.26688993 16.13503802 -11 13 C-12.0625 9.5625 -12.0625 9.5625 -12 6 C-8.68791982 0.74635558 -6.16206486 -0.60412401 0 0 Z " fill="#1354D9" transform="translate(107,63)"/>
</svg>
