<?xml version="1.0" encoding="UTF-8"?>
<svg version="1.1" xmlns="http://www.w3.org/2000/svg" width="180" height="180">
<path d="M0 0 C11.88 0 23.76 0 36 0 C38.03225834 5.41935558 39.88159286 10.71464588 41.46435547 16.25756836 C41.80409393 17.43267975 41.80409393 17.43267975 42.1506958 18.63153076 C42.89251754 21.20011645 43.62985918 23.76996497 44.3671875 26.33984375 C44.88871668 28.14864855 45.41054205 29.95736798 45.93264771 31.76600647 C47.30456069 36.52122538 48.67273928 41.27751049 50.04003906 46.03405762 C51.68747753 51.76275995 53.33907883 57.4902631 54.99028206 63.2178812 C56.2784536 67.6864175 57.56598088 72.15513528 58.85128784 76.62449646 C61.86359249 87.09411405 64.91340293 97.55204087 68 108 C69.84546563 105.23180155 70.58675338 103.43362402 71.47363281 100.29638672 C71.7491095 99.3319162 72.02458618 98.36744568 72.30841064 97.37374878 C72.60366638 96.31970856 72.89892212 95.26566833 73.203125 94.1796875 C73.51787781 93.07239288 73.83263062 91.96509827 74.15692139 90.82424927 C75.19282772 87.17586345 76.22138422 83.52544732 77.25 79.875 C77.96300016 77.35922147 78.67654694 74.84359779 79.390625 72.328125 C80.67660042 67.79649989 81.9611668 63.26448511 83.24340057 58.73180008 C86.49742157 47.22995487 89.78345451 35.73729315 93.07165527 24.24517822 C94.54910898 19.08050128 96.02448435 13.91523089 97.5 8.75 C98.7375 4.41875 98.7375 4.41875 100 0 C112.21 0 124.42 0 137 0 C137.94494339 36.48156453 138.08932767 72.94516774 138.0625 109.4375 C138.06164398 110.61011635 138.06078796 111.7827327 138.05990601 112.99088287 C138.04841102 127.66060551 138.02741842 142.330299 138 157 C129.42 157 120.84 157 112 157 C111.67 122.35 111.34 87.7 111 52 C107.638125 63.199375 104.27625 74.39875 100.8125 85.9375 C99.76167236 89.43722412 98.71084473 92.93694824 97.62817383 96.54272461 C96.66353544 99.7570692 96.66353544 99.7570692 95.69902039 102.97145081 C95.27857829 104.37242189 94.8579574 105.77333932 94.43717957 107.17420959 C93.78945832 109.33076781 93.1422691 111.48748475 92.49536133 113.64428711 C92.29057222 114.32666128 92.08578312 115.00903545 91.87478828 115.71208763 C90.77232621 119.39342393 89.68256126 123.07813706 88.60678101 126.7673645 C88.37874377 127.54839067 88.15070654 128.32941683 87.91575909 129.13411045 C87.47776426 130.63678621 87.04143029 132.13994735 86.60698414 133.64365292 C85.11009578 138.77980844 85.11009578 138.77980844 84 141 C73.77 141 63.54 141 53 141 C51.09317069 135.91512183 49.32988174 131.01537568 47.77929688 125.84057617 C47.57885269 125.17432724 47.37840851 124.50807831 47.17189026 123.82164001 C46.51816146 121.64621058 45.86836946 119.46962848 45.21875 117.29296875 C44.75960088 115.76127687 44.30024662 114.22964648 43.84069824 112.69807434 C42.88086129 109.49705975 41.92286456 106.29550241 40.96630859 103.09350586 C39.74874246 99.01800337 38.52757845 94.9435905 37.30513763 90.86954784 C36.35685352 87.70832689 35.41001299 84.54667503 34.46363831 81.38488197 C34.01428845 79.88389786 33.56462012 78.38300905 33.11460876 76.88222313 C30.63732656 68.61598565 28.21308267 60.34188005 26 52 C25.98969254 52.90248474 25.97938507 53.80496948 25.96876526 54.73480225 C25.86942795 63.37921685 25.76676305 72.02358484 25.66066074 80.66791916 C25.60626535 85.10850988 25.55301147 89.54910724 25.50268555 93.98974609 C25.26356557 115.01036194 24.85026083 135.99355594 24 157 C15.42 157 6.84 157 -2 157 C-1.89121686 140.51638053 -1.77896042 124.03279641 -1.66066074 107.54924297 C-1.60581577 99.89246098 -1.55242453 92.23567443 -1.50268555 84.57885742 C-1.45923554 77.89077245 -1.41282402 71.20271506 -1.36312145 64.51467353 C-1.33699818 60.98651928 -1.31217675 57.45836875 -1.29092598 53.9301815 C-1.18137908 35.9319558 -0.74722608 17.98395001 0 0 Z " fill="#FFFFFF" transform="translate(3,12)"/>
<path d="M0 0 C1.29808594 -0.01675781 2.59617188 -0.03351563 3.93359375 -0.05078125 C8.63922843 0.42028874 11.02326868 1.79352173 14.34375 5.0703125 C16.99347823 9.94513302 16.24466912 15.96057315 15.5625 21.3125 C13.97085818 24.65494783 11.91425533 26.63662233 8.5625 28.3125 C5.77631629 28.49009374 3.03802812 28.5900623 0.25 28.625 C-0.50990234 28.65400391 -1.26980469 28.68300781 -2.05273438 28.71289062 C-5.9374302 28.75676642 -7.96082718 28.60156665 -11.35546875 26.54296875 C-15.85265174 21.72516109 -15.86765361 17.66792592 -15.7578125 11.234375 C-15.30114707 7.06869526 -14.30533 5.33965389 -11.4375 2.3125 C-7.7891533 -0.14524405 -4.31197468 0.01282054 0 0 Z " fill="#CE0909" transform="translate(164.4375,140.6875)"/>
</svg>
